<svg xmlns="http://www.w3.org/2000/svg" xmlns:xlink="http://www.w3.org/1999/xlink" width="336" zoomAndPan="magnify" viewBox="0 0 252 251.999989" height="336" preserveAspectRatio="xMidYMid meet" version="1.0"><defs><g/><clipPath id="913d84fbc4"><path d="M 56.546875 65.75 L 195.296875 65.75 L 195.296875 186.5 L 56.546875 186.5 Z M 56.546875 65.75 " clip-rule="nonzero"/></clipPath></defs><g clip-path="url(#913d84fbc4)"><path fill="#000000" d="M 74.546875 186.496094 C 85.695312 167.003906 90.546875 158.554688 95.40625 150.113281 C 104.929688 133.5625 114.453125 117.019531 123.980469 100.472656 C 124.324219 99.875 124.738281 99.316406 125.253906 98.523438 C 126.894531 101.34375 128.320312 103.875 129.828125 106.347656 C 130.414062 107.308594 130.40625 108.089844 129.835938 109.0625 C 126.132812 115.414062 122.476562 121.796875 118.8125 128.167969 C 107.964844 147.023438 97.113281 165.875 86.265625 184.734375 C 85.980469 185.238281 85.765625 185.78125 85.425781 186.496094 L 195.273438 186.496094 C 194.949219 185.816406 194.816406 185.480469 194.636719 185.171875 C 192.210938 180.933594 189.625 176.777344 187.40625 172.4375 C 186.273438 170.226562 184.882812 169.628906 182.492188 169.632812 C 160.65625 169.726562 138.816406 169.6875 116.980469 169.671875 C 116.289062 169.671875 115.601562 169.566406 114.570312 169.484375 C 116.046875 166.902344 117.433594 164.710938 118.566406 162.398438 C 119.363281 160.777344 120.414062 160.296875 122.183594 160.300781 C 140.628906 160.367188 159.074219 160.339844 177.519531 160.339844 L 180.207031 160.339844 C 179.765625 159.445312 179.535156 158.898438 179.246094 158.390625 C 176.695312 153.941406 174.082031 149.527344 171.605469 145.035156 C 170.90625 143.765625 170.101562 143.363281 168.691406 143.371094 C 156.539062 143.429688 144.382812 143.40625 132.234375 143.40625 L 129.566406 143.40625 C 133.230469 137.03125 136.671875 131.054688 140.324219 124.695312 C 142.015625 127.628906 143.496094 130.109375 144.878906 132.636719 C 145.421875 133.621094 146.0625 134.035156 147.214844 134.007812 C 150.667969 133.933594 154.125 133.984375 157.578125 133.984375 L 165.203125 133.984375 C 152.050781 111.125 139.089844 88.609375 125.929688 65.75 L 56.570312 186.496094 Z M 74.546875 186.496094 " fill-opacity="1" fill-rule="nonzero"/></g><g fill="#000000" fill-opacity="1"><g transform="translate(118.374885, 87.47136)"><g><path d="M 1.640625 0 L 1.453125 -0.515625 L 0.671875 -0.515625 L 0.5 0 L 0.078125 0 L 0.8125 -2.03125 L 1.3125 -2.03125 L 2.0625 0 Z M 1.0625 -1.71875 L 1.0625 -1.6875 C 1.050781 -1.65625 1.035156 -1.613281 1.015625 -1.5625 C 1.003906 -1.519531 0.925781 -1.28125 0.78125 -0.84375 L 1.359375 -0.84375 L 1.15625 -1.421875 L 1.09375 -1.625 Z M 1.0625 -1.71875 "/></g></g></g><g fill="#000000" fill-opacity="1"><g transform="translate(120.506191, 87.47136)"><g><path d="M 1.21875 0 C 1.21875 -0.0078125 1.210938 -0.046875 1.203125 -0.109375 C 1.203125 -0.171875 1.203125 -0.21875 1.203125 -0.25 L 1.1875 -0.25 C 1.101562 -0.0625 0.9375 0.03125 0.6875 0.03125 C 0.507812 0.03125 0.367188 -0.0351562 0.265625 -0.171875 C 0.171875 -0.316406 0.125 -0.519531 0.125 -0.78125 C 0.125 -1.039062 0.175781 -1.238281 0.28125 -1.375 C 0.382812 -1.519531 0.53125 -1.59375 0.71875 -1.59375 C 0.832031 -1.59375 0.925781 -1.566406 1 -1.515625 C 1.082031 -1.472656 1.144531 -1.40625 1.1875 -1.3125 L 1.203125 -1.3125 L 1.1875 -1.5625 L 1.1875 -2.140625 L 1.59375 -2.140625 L 1.59375 -0.34375 C 1.59375 -0.25 1.597656 -0.132812 1.609375 0 Z M 1.203125 -0.78125 C 1.203125 -0.957031 1.171875 -1.085938 1.109375 -1.171875 C 1.054688 -1.265625 0.972656 -1.3125 0.859375 -1.3125 C 0.753906 -1.3125 0.675781 -1.265625 0.625 -1.171875 C 0.570312 -1.085938 0.546875 -0.957031 0.546875 -0.78125 C 0.546875 -0.425781 0.648438 -0.25 0.859375 -0.25 C 0.960938 -0.25 1.046875 -0.296875 1.109375 -0.390625 C 1.171875 -0.484375 1.203125 -0.613281 1.203125 -0.78125 Z M 1.203125 -0.78125 "/></g></g></g><g fill="#000000" fill-opacity="1"><g transform="translate(122.308938, 87.47136)"><g><path d="M 0.5625 0.03125 C 0.414062 0.03125 0.300781 -0.0078125 0.21875 -0.09375 C 0.132812 -0.175781 0.09375 -0.289062 0.09375 -0.4375 C 0.09375 -0.601562 0.144531 -0.726562 0.25 -0.8125 C 0.351562 -0.894531 0.503906 -0.9375 0.703125 -0.9375 L 1.03125 -0.953125 L 1.03125 -1.03125 C 1.03125 -1.125 1.015625 -1.195312 0.984375 -1.25 C 0.953125 -1.300781 0.894531 -1.328125 0.8125 -1.328125 C 0.738281 -1.328125 0.679688 -1.304688 0.640625 -1.265625 C 0.609375 -1.234375 0.585938 -1.179688 0.578125 -1.109375 L 0.15625 -1.125 C 0.1875 -1.28125 0.253906 -1.394531 0.359375 -1.46875 C 0.472656 -1.550781 0.628906 -1.59375 0.828125 -1.59375 C 1.023438 -1.59375 1.175781 -1.539062 1.28125 -1.4375 C 1.382812 -1.34375 1.4375 -1.207031 1.4375 -1.03125 L 1.4375 -0.46875 C 1.4375 -0.375 1.445312 -0.3125 1.46875 -0.28125 C 1.488281 -0.25 1.523438 -0.234375 1.578125 -0.234375 C 1.609375 -0.234375 1.632812 -0.234375 1.65625 -0.234375 L 1.65625 -0.015625 C 1.632812 -0.015625 1.613281 -0.0078125 1.59375 0 C 1.570312 0 1.550781 0 1.53125 0 C 1.519531 0.0078125 1.5 0.015625 1.46875 0.015625 C 1.445312 0.015625 1.425781 0.015625 1.40625 0.015625 C 1.300781 0.015625 1.222656 -0.00390625 1.171875 -0.046875 C 1.128906 -0.0976562 1.101562 -0.175781 1.09375 -0.28125 L 1.078125 -0.28125 C 0.960938 -0.0703125 0.789062 0.03125 0.5625 0.03125 Z M 1.03125 -0.71875 L 0.828125 -0.71875 C 0.734375 -0.71875 0.664062 -0.707031 0.625 -0.6875 C 0.59375 -0.664062 0.566406 -0.640625 0.546875 -0.609375 C 0.523438 -0.578125 0.515625 -0.53125 0.515625 -0.46875 C 0.515625 -0.394531 0.53125 -0.335938 0.5625 -0.296875 C 0.59375 -0.265625 0.640625 -0.25 0.703125 -0.25 C 0.765625 -0.25 0.820312 -0.265625 0.875 -0.296875 C 0.925781 -0.335938 0.960938 -0.390625 0.984375 -0.453125 C 1.015625 -0.515625 1.03125 -0.578125 1.03125 -0.640625 Z M 1.03125 -0.71875 "/></g></g></g><g fill="#000000" fill-opacity="1"><g transform="translate(123.950289, 87.47136)"><g><path d="M 0.59375 -1.5625 L 0.59375 -0.6875 C 0.59375 -0.414062 0.679688 -0.28125 0.859375 -0.28125 C 0.960938 -0.28125 1.039062 -0.320312 1.09375 -0.40625 C 1.15625 -0.488281 1.1875 -0.59375 1.1875 -0.71875 L 1.1875 -1.5625 L 1.59375 -1.5625 L 1.59375 -0.34375 C 1.59375 -0.21875 1.597656 -0.101562 1.609375 0 L 1.21875 0 C 1.207031 -0.132812 1.203125 -0.238281 1.203125 -0.3125 C 1.148438 -0.1875 1.082031 -0.0976562 1 -0.046875 C 0.914062 0.00390625 0.816406 0.03125 0.703125 0.03125 C 0.535156 0.03125 0.40625 -0.0195312 0.3125 -0.125 C 0.226562 -0.226562 0.1875 -0.375 0.1875 -0.5625 L 0.1875 -1.5625 Z M 0.59375 -1.5625 "/></g></g></g><g fill="#000000" fill-opacity="1"><g transform="translate(125.753036, 87.47136)"><g><path d="M 0.859375 0.625 C 0.671875 0.625 0.515625 0.585938 0.390625 0.515625 C 0.273438 0.441406 0.207031 0.335938 0.1875 0.203125 L 0.59375 0.15625 C 0.601562 0.21875 0.628906 0.265625 0.671875 0.296875 C 0.722656 0.335938 0.789062 0.359375 0.875 0.359375 C 0.988281 0.359375 1.070312 0.320312 1.125 0.25 C 1.175781 0.1875 1.203125 0.0859375 1.203125 -0.046875 L 1.203125 -0.296875 C 1.109375 -0.0976562 0.9375 0 0.6875 0 C 0.507812 0 0.367188 -0.0664062 0.265625 -0.203125 C 0.171875 -0.335938 0.125 -0.535156 0.125 -0.796875 C 0.125 -1.046875 0.175781 -1.238281 0.28125 -1.375 C 0.382812 -1.519531 0.53125 -1.59375 0.71875 -1.59375 C 0.945312 -1.59375 1.109375 -1.5 1.203125 -1.3125 C 1.203125 -1.34375 1.203125 -1.382812 1.203125 -1.4375 C 1.210938 -1.5 1.21875 -1.539062 1.21875 -1.5625 L 1.609375 -1.5625 C 1.597656 -1.457031 1.59375 -1.335938 1.59375 -1.203125 L 1.59375 -0.046875 C 1.59375 0.171875 1.53125 0.335938 1.40625 0.453125 C 1.28125 0.566406 1.097656 0.625 0.859375 0.625 Z M 1.203125 -0.796875 C 1.203125 -0.960938 1.171875 -1.085938 1.109375 -1.171875 C 1.054688 -1.265625 0.976562 -1.3125 0.875 -1.3125 C 0.65625 -1.3125 0.546875 -1.140625 0.546875 -0.796875 C 0.546875 -0.453125 0.648438 -0.28125 0.859375 -0.28125 C 0.972656 -0.28125 1.054688 -0.320312 1.109375 -0.40625 C 1.171875 -0.5 1.203125 -0.628906 1.203125 -0.796875 Z M 1.203125 -0.796875 "/></g></g></g><g fill="#000000" fill-opacity="1"><g transform="translate(127.555783, 87.47136)"><g><path d="M 0.5625 0.03125 C 0.414062 0.03125 0.300781 -0.0078125 0.21875 -0.09375 C 0.132812 -0.175781 0.09375 -0.289062 0.09375 -0.4375 C 0.09375 -0.601562 0.144531 -0.726562 0.25 -0.8125 C 0.351562 -0.894531 0.503906 -0.9375 0.703125 -0.9375 L 1.03125 -0.953125 L 1.03125 -1.03125 C 1.03125 -1.125 1.015625 -1.195312 0.984375 -1.25 C 0.953125 -1.300781 0.894531 -1.328125 0.8125 -1.328125 C 0.738281 -1.328125 0.679688 -1.304688 0.640625 -1.265625 C 0.609375 -1.234375 0.585938 -1.179688 0.578125 -1.109375 L 0.15625 -1.125 C 0.1875 -1.28125 0.253906 -1.394531 0.359375 -1.46875 C 0.472656 -1.550781 0.628906 -1.59375 0.828125 -1.59375 C 1.023438 -1.59375 1.175781 -1.539062 1.28125 -1.4375 C 1.382812 -1.34375 1.4375 -1.207031 1.4375 -1.03125 L 1.4375 -0.46875 C 1.4375 -0.375 1.445312 -0.3125 1.46875 -0.28125 C 1.488281 -0.25 1.523438 -0.234375 1.578125 -0.234375 C 1.609375 -0.234375 1.632812 -0.234375 1.65625 -0.234375 L 1.65625 -0.015625 C 1.632812 -0.015625 1.613281 -0.0078125 1.59375 0 C 1.570312 0 1.550781 0 1.53125 0 C 1.519531 0.0078125 1.5 0.015625 1.46875 0.015625 C 1.445312 0.015625 1.425781 0.015625 1.40625 0.015625 C 1.300781 0.015625 1.222656 -0.00390625 1.171875 -0.046875 C 1.128906 -0.0976562 1.101562 -0.175781 1.09375 -0.28125 L 1.078125 -0.28125 C 0.960938 -0.0703125 0.789062 0.03125 0.5625 0.03125 Z M 1.03125 -0.71875 L 0.828125 -0.71875 C 0.734375 -0.71875 0.664062 -0.707031 0.625 -0.6875 C 0.59375 -0.664062 0.566406 -0.640625 0.546875 -0.609375 C 0.523438 -0.578125 0.515625 -0.53125 0.515625 -0.46875 C 0.515625 -0.394531 0.53125 -0.335938 0.5625 -0.296875 C 0.59375 -0.265625 0.640625 -0.25 0.703125 -0.25 C 0.765625 -0.25 0.820312 -0.265625 0.875 -0.296875 C 0.925781 -0.335938 0.960938 -0.390625 0.984375 -0.453125 C 1.015625 -0.515625 1.03125 -0.578125 1.03125 -0.640625 Z M 0.828125 -1.703125 C 0.679688 -1.703125 0.5625 -1.742188 0.46875 -1.828125 C 0.382812 -1.921875 0.335938 -2.035156 0.328125 -2.171875 L 0.5625 -2.171875 C 0.570312 -2.097656 0.601562 -2.039062 0.65625 -2 C 0.707031 -1.957031 0.765625 -1.9375 0.828125 -1.9375 C 0.898438 -1.9375 0.960938 -1.957031 1.015625 -2 C 1.066406 -2.039062 1.097656 -2.097656 1.109375 -2.171875 L 1.34375 -2.171875 C 1.320312 -2.023438 1.265625 -1.910156 1.171875 -1.828125 C 1.085938 -1.742188 0.972656 -1.703125 0.828125 -1.703125 Z M 0.828125 -1.703125 "/></g></g></g><g fill="#000000" fill-opacity="1"><g transform="translate(129.197134, 87.47136)"><g/></g></g><g fill="#000000" fill-opacity="1"><g transform="translate(130.017088, 87.47136)"><g><path d="M 0.59375 -1.5625 L 0.59375 -0.6875 C 0.59375 -0.414062 0.679688 -0.28125 0.859375 -0.28125 C 0.960938 -0.28125 1.039062 -0.320312 1.09375 -0.40625 C 1.15625 -0.488281 1.1875 -0.59375 1.1875 -0.71875 L 1.1875 -1.5625 L 1.59375 -1.5625 L 1.59375 -0.34375 C 1.59375 -0.21875 1.597656 -0.101562 1.609375 0 L 1.21875 0 C 1.207031 -0.132812 1.203125 -0.238281 1.203125 -0.3125 C 1.148438 -0.1875 1.082031 -0.0976562 1 -0.046875 C 0.914062 0.00390625 0.816406 0.03125 0.703125 0.03125 C 0.535156 0.03125 0.40625 -0.0195312 0.3125 -0.125 C 0.226562 -0.226562 0.1875 -0.375 0.1875 -0.5625 L 0.1875 -1.5625 Z M 0.59375 -1.5625 "/></g></g></g><g fill="#000000" fill-opacity="1"><g transform="translate(131.819836, 87.47136)"><g><path d="M 1.21875 0 L 1.21875 -0.875 C 1.21875 -1.144531 1.125 -1.28125 0.9375 -1.28125 C 0.84375 -1.28125 0.765625 -1.238281 0.703125 -1.15625 C 0.640625 -1.070312 0.609375 -0.96875 0.609375 -0.84375 L 0.609375 0 L 0.203125 0 L 0.203125 -1.21875 C 0.203125 -1.300781 0.203125 -1.367188 0.203125 -1.421875 C 0.203125 -1.472656 0.195312 -1.519531 0.1875 -1.5625 L 0.578125 -1.5625 C 0.578125 -1.539062 0.578125 -1.488281 0.578125 -1.40625 C 0.585938 -1.332031 0.59375 -1.28125 0.59375 -1.25 L 0.609375 -1.25 C 0.660156 -1.363281 0.726562 -1.445312 0.8125 -1.5 C 0.894531 -1.5625 0.992188 -1.59375 1.109375 -1.59375 C 1.273438 -1.59375 1.398438 -1.539062 1.484375 -1.4375 C 1.578125 -1.332031 1.625 -1.179688 1.625 -0.984375 L 1.625 0 Z M 1.21875 0 "/></g></g></g><g fill="#000000" fill-opacity="1"><g transform="translate(122.473119, 91.558949)"><g><path d="M 0.5625 0.03125 C 0.414062 0.03125 0.300781 -0.0078125 0.21875 -0.09375 C 0.132812 -0.175781 0.09375 -0.289062 0.09375 -0.4375 C 0.09375 -0.601562 0.144531 -0.726562 0.25 -0.8125 C 0.351562 -0.894531 0.503906 -0.9375 0.703125 -0.9375 L 1.03125 -0.953125 L 1.03125 -1.03125 C 1.03125 -1.125 1.015625 -1.195312 0.984375 -1.25 C 0.953125 -1.300781 0.894531 -1.328125 0.8125 -1.328125 C 0.738281 -1.328125 0.679688 -1.304688 0.640625 -1.265625 C 0.609375 -1.234375 0.585938 -1.179688 0.578125 -1.109375 L 0.15625 -1.125 C 0.1875 -1.28125 0.253906 -1.394531 0.359375 -1.46875 C 0.472656 -1.550781 0.628906 -1.59375 0.828125 -1.59375 C 1.023438 -1.59375 1.175781 -1.539062 1.28125 -1.4375 C 1.382812 -1.34375 1.4375 -1.207031 1.4375 -1.03125 L 1.4375 -0.46875 C 1.4375 -0.375 1.445312 -0.3125 1.46875 -0.28125 C 1.488281 -0.25 1.523438 -0.234375 1.578125 -0.234375 C 1.609375 -0.234375 1.632812 -0.234375 1.65625 -0.234375 L 1.65625 -0.015625 C 1.632812 -0.015625 1.613281 -0.0078125 1.59375 0 C 1.570312 0 1.550781 0 1.53125 0 C 1.519531 0.0078125 1.5 0.015625 1.46875 0.015625 C 1.445312 0.015625 1.425781 0.015625 1.40625 0.015625 C 1.300781 0.015625 1.222656 -0.00390625 1.171875 -0.046875 C 1.128906 -0.0976562 1.101562 -0.175781 1.09375 -0.28125 L 1.078125 -0.28125 C 0.960938 -0.0703125 0.789062 0.03125 0.5625 0.03125 Z M 1.03125 -0.71875 L 0.828125 -0.71875 C 0.734375 -0.71875 0.664062 -0.707031 0.625 -0.6875 C 0.59375 -0.664062 0.566406 -0.640625 0.546875 -0.609375 C 0.523438 -0.578125 0.515625 -0.53125 0.515625 -0.46875 C 0.515625 -0.394531 0.53125 -0.335938 0.5625 -0.296875 C 0.59375 -0.265625 0.640625 -0.25 0.703125 -0.25 C 0.765625 -0.25 0.820312 -0.265625 0.875 -0.296875 C 0.925781 -0.335938 0.960938 -0.390625 0.984375 -0.453125 C 1.015625 -0.515625 1.03125 -0.578125 1.03125 -0.640625 Z M 1.03125 -0.71875 "/></g></g></g><g fill="#000000" fill-opacity="1"><g transform="translate(124.114469, 91.558949)"><g><path d="M 1.21875 0 L 1.21875 -0.875 C 1.21875 -1.144531 1.125 -1.28125 0.9375 -1.28125 C 0.84375 -1.28125 0.765625 -1.238281 0.703125 -1.15625 C 0.640625 -1.070312 0.609375 -0.96875 0.609375 -0.84375 L 0.609375 0 L 0.203125 0 L 0.203125 -1.21875 C 0.203125 -1.300781 0.203125 -1.367188 0.203125 -1.421875 C 0.203125 -1.472656 0.195312 -1.519531 0.1875 -1.5625 L 0.578125 -1.5625 C 0.578125 -1.539062 0.578125 -1.488281 0.578125 -1.40625 C 0.585938 -1.332031 0.59375 -1.28125 0.59375 -1.25 L 0.609375 -1.25 C 0.660156 -1.363281 0.726562 -1.445312 0.8125 -1.5 C 0.894531 -1.5625 0.992188 -1.59375 1.109375 -1.59375 C 1.273438 -1.59375 1.398438 -1.539062 1.484375 -1.4375 C 1.578125 -1.332031 1.625 -1.179688 1.625 -0.984375 L 1.625 0 Z M 1.21875 0 "/></g></g></g><g fill="#000000" fill-opacity="1"><g transform="translate(125.917216, 91.558949)"><g><path d="M 0.609375 0.03125 C 0.484375 0.03125 0.390625 0 0.328125 -0.0625 C 0.265625 -0.132812 0.234375 -0.234375 0.234375 -0.359375 L 0.234375 -1.28125 L 0.03125 -1.28125 L 0.03125 -1.5625 L 0.25 -1.5625 L 0.375 -1.921875 L 0.640625 -1.921875 L 0.640625 -1.5625 L 0.9375 -1.5625 L 0.9375 -1.28125 L 0.640625 -1.28125 L 0.640625 -0.46875 C 0.640625 -0.394531 0.648438 -0.335938 0.671875 -0.296875 C 0.703125 -0.265625 0.75 -0.25 0.8125 -0.25 C 0.84375 -0.25 0.890625 -0.257812 0.953125 -0.28125 L 0.953125 -0.015625 C 0.847656 0.015625 0.734375 0.03125 0.609375 0.03125 Z M 0.609375 0.03125 "/></g></g></g><g fill="#000000" fill-opacity="1"><g transform="translate(126.900009, 91.558949)"><g><path d="M 0.84375 0.03125 C 0.613281 0.03125 0.429688 -0.0351562 0.296875 -0.171875 C 0.171875 -0.316406 0.109375 -0.519531 0.109375 -0.78125 C 0.109375 -1.039062 0.171875 -1.238281 0.296875 -1.375 C 0.429688 -1.519531 0.613281 -1.59375 0.84375 -1.59375 C 1.070312 -1.59375 1.242188 -1.515625 1.359375 -1.359375 C 1.484375 -1.210938 1.546875 -1 1.546875 -0.71875 L 1.546875 -0.703125 L 0.546875 -0.703125 C 0.546875 -0.546875 0.570312 -0.429688 0.625 -0.359375 C 0.675781 -0.285156 0.753906 -0.25 0.859375 -0.25 C 1.003906 -0.25 1.097656 -0.304688 1.140625 -0.421875 L 1.515625 -0.390625 C 1.410156 -0.109375 1.1875 0.03125 0.84375 0.03125 Z M 0.84375 -1.328125 C 0.75 -1.328125 0.675781 -1.296875 0.625 -1.234375 C 0.570312 -1.171875 0.546875 -1.078125 0.546875 -0.953125 L 1.15625 -0.953125 C 1.144531 -1.078125 1.113281 -1.171875 1.0625 -1.234375 C 1.007812 -1.296875 0.9375 -1.328125 0.84375 -1.328125 Z M 0.84375 -1.328125 "/></g></g></g><g fill="#000000" fill-opacity="1"><g transform="translate(128.54136, 91.558949)"><g><path d="M 0.609375 0.03125 C 0.484375 0.03125 0.390625 0 0.328125 -0.0625 C 0.265625 -0.132812 0.234375 -0.234375 0.234375 -0.359375 L 0.234375 -1.28125 L 0.03125 -1.28125 L 0.03125 -1.5625 L 0.25 -1.5625 L 0.375 -1.921875 L 0.640625 -1.921875 L 0.640625 -1.5625 L 0.9375 -1.5625 L 0.9375 -1.28125 L 0.640625 -1.28125 L 0.640625 -0.46875 C 0.640625 -0.394531 0.648438 -0.335938 0.671875 -0.296875 C 0.703125 -0.265625 0.75 -0.25 0.8125 -0.25 C 0.84375 -0.25 0.890625 -0.257812 0.953125 -0.28125 L 0.953125 -0.015625 C 0.847656 0.015625 0.734375 0.03125 0.609375 0.03125 Z M 0.609375 0.03125 "/></g></g></g></svg>